# xmcd
#
# Track frame offsets:
#	150
#	5319
#	25234
#	47946
#	68498
#	84310
#	100622
#	122393
#	142798
#	152613
#	174872
#	194372
#	211851
#	217858
#	236005
#	256902
#	277709
#	280854
#
# Disc length: 4032
#
# Revision: 6
# Processed by: cddbd v1.5.1PL0 Copyright (c) Steve Scherf et al.
# Submitted via: CDex 1.40Beta8
# Normalized: r5:TRMNUM
#
DISCID=d90fbe12
DTITLE=Missy Elliott - Da Real World
DYEAR=1900
DGENRE=
TTITLE0=Mysterious (Intro)
TTITLE1=Beat Biters
TTITLE2=Busa Rhyme (feat. Eminem)
TTITLE3=All N My Grill (feat. Big Boi Of Outkast and Nicole)
TTITLE4=Dangerous Mouths (feat. Redman)
TTITLE5=Hot Boyz
TTITLE6=You Don't Know (feat. Lil' Mo)
TTITLE7=Mr. D.J. (feat. Lady Saw)
TTITLE8=Checkin' For You (feat. Lil Kim) (Interlude)
TTITLE9=Stickin' Chickens (feat. Aaliyah and Da Brat)
TTITLE10=Smooth Chick
TTITLE11=We Did It
TTITLE12=Throw Your Hands Up (feat. Lil Kim) (Interlude)
TTITLE13=She's A Bitch
TTITLE14=U Can't Resist (feat. Juvenile and B. G.)
TTITLE15=Crazy Feelings (feat. Beyonce of Destiny's Child)
TTITLE16=Religious Blessings (Outro)
TTITLE17=All N My Grill (feat. MC Solaar)
EXTD=Copy: 1999 Elektra
EXTT0=
EXTT1=
EXTT2=
EXTT3=
EXTT4=
EXTT5=
EXTT6=
EXTT7=
EXTT8=
EXTT9=
EXTT10=
EXTT11=
EXTT12=
EXTT13=
EXTT14=
EXTT15=
EXTT16=
EXTT17=
PLAYORDER=
